<?xml version="1.0" encoding="UTF-8" standalone="no"?>
<!-- Created with Inkscape (http://www.inkscape.org/) -->

<svg
   xmlns:dc="http://purl.org/dc/elements/1.1/"
   xmlns:cc="http://creativecommons.org/ns#"
   xmlns:rdf="http://www.w3.org/1999/02/22-rdf-syntax-ns#"
   xmlns:svg="http://www.w3.org/2000/svg"
   xmlns="http://www.w3.org/2000/svg"
   version="1.1"
   width="30"
   height="30"
   id="svg2">
  <defs
     id="defs4" />
  <metadata
     id="metadata7">
    <rdf:RDF>
      <cc:Work
         rdf:about="">
        <dc:format>image/svg+xml</dc:format>
        <dc:type
           rdf:resource="http://purl.org/dc/dcmitype/StillImage" />
        <dc:title></dc:title>
      </cc:Work>
    </rdf:RDF>
  </metadata>
  <g
     transform="translate(0,-1022.3622)"
     id="layer1">
    <path
       d="m 5.3288843,1035.1247 c 0.340329,0.7323 0.8037025,1.3881 1.2727923,2.0456 0.2437111,0.4431 0.5946664,0.8179 0.8509724,1.2518 0.187385,0.3518 0.4940497,0.6173 0.7109342,0.9499 0.1902351,0.2883 0.432919,0.5339 0.6534145,0.7987 0.1905946,0.2816 0.3755928,0.5762 0.6247039,0.8136 0.2359323,0.2758 0.5170005,0.5006 0.7200464,0.8027 0.231404,0.2549 0.51428,0.4433 0.720763,0.723 0.24556,0.2566 0.428139,0.5548 0.636383,0.8379 0.183964,0.3035 0.450564,0.541 0.639611,0.8411 0.120711,0.1949 0.172265,0.4538 0.335944,0.6237 0.06739,0.07 0.150866,0.1241 0.220196,0.1922 0.263243,0.2341 0.375456,0.598 0.646173,0.8176 0.21672,0.1605 0.274103,0.4308 0.432952,0.6301 0.06224,0.078 0.141023,0.1426 0.206661,0.2181 0.18664,0.3151 0.367904,0.629 0.572164,0.934 0.289435,0.2192 0.332021,0.6027 0.570227,0.852 0.25467,0.2624 0.171612,0.5113 0.561723,0.4142 1.248738,-1.4531 0.123649,-0.1214 -4.73346,2.4744 -0.04261,0.023 0.08676,-0.043 0.130324,-0.064 0.151676,-0.073 0.241725,-0.1789 0.372029,-0.2828 0.238228,-0.2702 0.50024,-0.5167 0.74476,-0.7832 0.242965,-0.309 0.462973,-0.628 0.658337,-0.9675 0.237636,-0.2829 0.413678,-0.6045 0.62143,-0.9084 0.277941,-0.444 0.571191,-0.8798 0.841943,-1.3291 0.230278,-0.5173 0.532469,-0.997 0.800452,-1.4952 0.200842,-0.3889 0.398412,-0.7837 0.558607,-1.1904 0.221963,-0.32 0.2836,-0.6942 0.404524,-1.0515 0.08016,-0.361 0.343416,-0.6232 0.536135,-0.9261 0.164049,-0.3664 0.380231,-0.7146 0.596672,-1.0552 0.195568,-0.319 0.340985,-0.6645 0.530036,-0.9863 0.205726,-0.3932 0.389004,-0.7984 0.57824,-1.1998 0.191233,-0.4105 0.398535,-0.8164 0.567511,-1.2361 0.169922,-0.4662 0.370962,-0.9163 0.516732,-1.3916 0.130052,-0.4319 0.321289,-0.8406 0.482367,-1.2611 0.08397,-0.3833 0.202107,-0.7436 0.400264,-1.0853 0.138378,-0.3379 0.309501,-0.663 0.407086,-1.0154 0.07902,-0.3792 0.207213,-0.7471 0.371273,-1.0992 0.156663,-0.3451 0.323819,-0.668 0.410211,-1.0388 0.09885,-0.3628 0.26309,-0.6992 0.399988,-1.0481 0.112447,-0.3702 0.268324,-0.7264 0.440611,-1.074 0.227135,-0.3455 0.342759,-0.7395 0.501069,-1.1157 0.08952,-0.3728 0.346605,-0.6646 0.515735,-0.9996 0.07516,-0.2279 0.31773,-0.325 0.443579,-0.5169 0.06547,-0.1 0.113258,-0.2098 0.178298,-0.3098 0.10913,-0.211 0.24317,-0.4136 0.406131,-0.5893 0,0 5.213983,-2.1605 5.213983,-2.1605 l 0,0 c -0.130864,0.1855 -0.297924,0.3335 -0.444922,0.5068 -0.02713,0.056 -0.05425,0.1116 -0.08138,0.1675 -0.03408,0.044 -0.07706,0.083 -0.102227,0.1316 -0.114747,0.224 -0.132835,0.4754 -0.419363,0.5674 -0.200895,0.2206 -0.0337,0.01 -0.18411,0.3032 -0.106207,0.2076 -0.307019,0.3536 -0.395062,0.5753 -0.05975,0.202 -0.159517,0.3697 -0.232429,0.5629 -0.07966,0.2111 -0.08976,0.4499 -0.224882,0.6428 -0.209387,0.3062 -0.331724,0.6303 -0.495213,0.958 -0.08304,0.3826 -0.275167,0.6981 -0.388881,1.0687 -0.16658,0.3393 -0.110607,0.7661 -0.400961,1.0564 -0.05798,0.1829 -0.155988,0.319 -0.228581,0.4893 -0.07247,0.1699 -0.07131,0.3736 -0.186059,0.5301 -0.02909,0.2095 -0.057,0.4184 -0.130355,0.619 -0.02109,0.058 -0.04972,0.1125 -0.07459,0.1687 -0.03034,0.047 -0.06987,0.087 -0.09099,0.1386 -0.02674,0.065 -0.0338,0.1345 -0.0507,0.2018 -0.132175,0.3522 -0.42127,0.6246 -0.438984,1.0178 -0.106405,0.4561 -0.347228,0.8475 -0.482295,1.2947 -0.19282,0.4476 -0.240624,0.9472 -0.515111,1.3646 -0.114254,0.4696 -0.361662,0.8724 -0.535861,1.3212 -0.216464,0.3875 -0.397455,0.7959 -0.55804,1.2065 -0.171299,0.3366 -0.377785,0.6568 -0.526558,1.003 -0.03253,0.06 -0.06506,0.1198 -0.09759,0.1796 -0.03954,0.05 -0.0871,0.095 -0.118593,0.1507 -0.129195,0.2267 -0.210998,0.4717 -0.407223,0.661 -0.05188,0.1844 -0.09834,0.3778 -0.235138,0.525 -0.0358,0.039 -0.09071,0.058 -0.124568,0.098 -0.03819,0.046 -0.05845,0.1022 -0.08767,0.1533 -0.03511,0.039 -0.07023,0.079 -0.105343,0.1177 -0.04069,0.113 -0.105735,0.2175 -0.1391,0.3326 -0.07641,0.2637 -0.05984,0.5564 -0.23076,0.7933 -0.256963,0.3592 -0.3603,0.8168 -0.564905,1.2058 -0.286895,0.4935 -0.597685,0.9742 -0.816277,1.5002 -0.234257,0.4585 -0.495579,0.9215 -0.814192,1.3274 -0.168878,0.3446 -0.411825,0.6369 -0.584579,0.9764 -0.296946,0.2701 -0.381853,0.6698 -0.673888,0.9447 -0.179196,0.3241 -0.428577,0.6014 -0.712559,0.8365 -0.370904,0.5636 0.157379,-0.2035 -0.22532,0.2499 -0.03894,0.047 -0.05216,0.1089 -0.08934,0.1563 -0.03081,0.039 -0.06761,0.077 -0.112097,0.1008 -5.049969,2.7426 -3.208444,3.2488 -5.227693,2.6414 -0.3577,-0.1574 -0.552964,-0.438 -0.771772,-0.7415 -0.221991,-0.2903 -0.3280843,-0.6388 -0.5978259,-0.8984 -0.1929367,-0.2845 -0.3629214,-0.5794 -0.5361421,-0.874 -0.2315286,-0.261 -0.3839522,-0.5603 -0.6187584,-0.8147 -0.2347186,-0.2585 -0.3939543,-0.5665 -0.6442236,-0.8144 -0.2764356,-0.2667 -0.4888568,-0.5667 -0.6219762,-0.9245 -0.1859119,-0.2869 -0.4567888,-0.5158 -0.6248121,-0.816 -0.1974954,-0.2823 -0.3951938,-0.5618 -0.6262771,-0.8209 -0.2226832,-0.2686 -0.5457035,-0.4503 -0.7357956,-0.7483 -0.1920372,-0.2682 -0.4696755,-0.4679 -0.6745002,-0.7274 -0.2361537,-0.2635 -0.4474563,-0.546 -0.6408634,-0.8402 -0.2430615,-0.2759 -0.4809393,-0.5546 -0.6859117,-0.8589 -0.2241984,-0.3365 -0.5406736,-0.612 -0.7246426,-0.976 -0.2419466,-0.4227 -0.5759917,-0.7935 -0.7984818,-1.2291 -0.4614669,-0.6699 -0.90386483,-1.3454 -1.29861628,-2.0543 0,0 4.88446828,-2.7479 4.88446828,-2.7479 z"
       id="path2995"
       style="fill:#000000;fill-opacity:1;stroke:none" />
    <path
       d="m 11.434718,29.62038 c -0.264126,-0.05977 -0.404219,-0.250829 -0.328534,-0.448061 0.0775,-0.201973 0.0039,-0.294727 -0.178337,-0.224789 C 10.659609,29.050462 9.6019366,27.722369 7.3135153,24.4091 7.0159231,23.978234 6.0713774,22.830212 5.2145249,21.857941 4.3576726,20.885669 2.9828406,19.077492 2.1593427,17.83977 L 0.66207402,15.589367 2.8006369,14.367371 c 1.1762097,-0.672098 2.2263153,-1.221002 2.3335682,-1.219787 0.107253,0.0012 0.6174267,0.654657 1.1337195,1.452094 0.5162927,0.797437 1.7382291,2.415844 2.7154138,3.59646 0.9771847,1.180615 2.5241826,3.140943 3.4377726,4.356282 0.91359,1.21534 1.760446,2.209709 1.881902,2.209709 0.121457,0 0.627242,-0.880727 1.123967,-1.95717 0.496725,-1.076444 1.024162,-2.171908 1.172082,-2.434365 1.529228,-2.713338 2.191393,-4.164326 3.585378,-7.856564 2.105734,-5.5774396 2.838968,-7.2948744 3.615264,-8.4679363 0.613692,-0.9273509 1.113866,-1.2023187 4.99704,-2.7470891 0.142883,-0.056841 0.0624,0.1704435 -0.17886,0.5050763 -0.706077,0.9793581 -1.616181,3.0801316 -3.472879,8.0163564 -0.957836,2.5465077 -2.283004,5.6148457 -2.944818,6.8185297 -0.661814,1.203684 -1.333423,2.555362 -1.492466,3.00373 -0.403188,1.136654 -2.244972,4.310498 -3.346312,5.766512 -0.506286,0.66933 -1.772837,1.812791 -2.814556,2.541022 -2.508425,1.753557 -2.578159,1.79098 -3.112135,1.670149 z m 4.764017,-3.359824 c 0.296133,-0.479154 -0.13577,-0.597389 -0.575589,-0.15757 -0.393692,0.393694 -0.394384,0.42691 -0.0089,0.42691 0.22991,0 0.492926,-0.121203 0.58448,-0.26934 z"
       transform="translate(0,1022.3622)"
       id="path2999"
       style="fill:#000000;fill-opacity:1;stroke:none" />
    <path
       d=""
       transform="translate(0,1022.3622)"
       id="path3001"
       style="fill:#000000;fill-opacity:1;stroke:none" />
    <path
       d="m 15.809543,26.82826 c 0,-0.305206 0.479115,-0.661042 0.65425,-0.485908 0.06356,0.06356 -0.05764,0.259322 -0.26934,0.435017 -0.240008,0.199189 -0.38491,0.218348 -0.38491,0.05089 z"
       transform="translate(0,1022.3622)"
       id="path3003"
       style="fill:#000000;fill-opacity:1;stroke:none" />
    <path
       d=""
       transform="translate(0,1022.3622)"
       id="path3005"
       style="fill:#000000;fill-opacity:1;stroke:none" />
    <path
       d=""
       transform="translate(0,1022.3622)"
       id="path3007"
       style="fill:#000000;fill-opacity:1;stroke:none" />
    <path
       d="m 16.062081,26.403627 c 0.17291,-0.208344 0.428025,-0.378807 0.566921,-0.378807 0.140872,0 0.113526,0.167498 -0.06184,0.378807 -0.172911,0.208344 -0.428025,0.378807 -0.566921,0.378807 -0.140872,0 -0.113526,-0.167498 0.06184,-0.378807 z"
       transform="translate(0,1022.3622)"
       id="path3009"
       style="fill:#000000;fill-opacity:1;stroke:none" />
    <path
       d="m 15.631582,26.348319 c 0,-0.08073 0.18564,-0.221943 0.231493,-0.176089 0.04585,0.04585 -0.09535,0.231493 -0.176089,0.231493 -0.03047,0 -0.0554,-0.02493 -0.0554,-0.0554 z"
       transform="translate(0,1022.3622)"
       id="path3011"
       style="fill:#000000;fill-opacity:1;stroke:none" />
    <path
       d=""
       transform="translate(0,1022.3622)"
       id="path3013"
       style="fill:#000000;fill-opacity:1;stroke:none" />
    <path
       d=""
       transform="translate(0,1022.3622)"
       id="path3015"
       style="fill:#000000;fill-opacity:1;stroke:none" />
    <path
       d=""
       transform="translate(0,1022.3622)"
       id="path3017"
       style="fill:#000000;fill-opacity:1;stroke:none" />
    <path
       d="m 15.467961,26.401332 c 0,0 0,0 0,0 z"
       transform="translate(0,1022.3622)"
       id="path3019"
       style="fill:none;stroke:#000000;stroke-width:1px;stroke-linecap:butt;stroke-linejoin:miter;stroke-opacity:1" />
    <path
       d="m 15.531095,25.517448 c -1.27991,2.628105 2.887361,0 0,0 z"
       transform="translate(0,1022.3622)"
       id="path3021"
       style="fill:none;stroke:#000000;stroke-width:1px;stroke-linecap:butt;stroke-linejoin:miter;stroke-opacity:1" />
  </g>
</svg>
